<?xml version="1.0" standalone="no"?>
<!DOCTYPE svg PUBLIC "-//W3C//DTD SVG 20010904//EN"
 "http://www.w3.org/TR/2001/REC-SVG-20010904/DTD/svg10.dtd">
<svg version="1.0" xmlns="http://www.w3.org/2000/svg"
 width="144.000000pt" height="144.000000pt" viewBox="0 0 144.000000 144.000000"
 preserveAspectRatio="xMidYMid meet">
<metadata>
Created by potrace 1.11, written by Peter Selinger 2001-2013
</metadata>
<g transform="translate(0.000000,144.000000) scale(0.100000,-0.100000)"
fill="#000000" stroke="none">
<path d="M572 1365 c-218 -49 -401 -216 -479 -437 -23 -64 -26 -90 -27 -203
-1 -111 2 -141 23 -205 22 -68 77 -173 112 -215 72 -84 172 -161 241 -185 20
-8 34 -18 31 -23 -3 -6 -2 -7 4 -4 5 3 32 -1 59 -9 27 -8 74 -17 104 -20 103
-9 170 -11 170 -4 0 10 34 8 48 -3 9 -7 11 -6 6 6 -4 12 -1 15 15 12 12 -2 21
0 21 6 0 5 3 8 8 8 4 -1 9 0 12 1 12 4 47 12 62 13 9 1 15 3 12 6 -8 8 68 41
80 34 6 -3 8 -3 4 2 -7 7 -2 13 42 50 15 13 21 15 16 5 -4 -8 0 -6 9 5 9 11
21 19 26 17 6 -1 8 1 5 6 -6 10 55 68 67 64 5 -1 6 2 2 8 -3 5 5 25 18 42 45
60 88 158 103 233 2 11 6 31 9 45 11 50 5 183 -11 248 -28 119 -89 228 -174
312 -134 134 -262 190 -445 196 -72 2 -132 -1 -173 -11z"/>
</g>
</svg>
